<svg width="17" height="17" viewBox="0 0 17 17" fill="none" xmlns="http://www.w3.org/2000/svg">
<rect x="6" width="5" height="1" fill="black"/>
<rect y="11" width="5" height="1" transform="rotate(-90 0 11)" fill="black"/>
<rect x="16" y="11" width="5" height="1" transform="rotate(-90 16 11)" fill="black"/>
<rect x="6" y="16" width="5" height="1" fill="black"/>
<rect x="4" y="15" width="2" height="1" fill="black"/>
<rect x="4" y="1" width="2" height="1" fill="black"/>
<rect x="2" y="4" width="2" height="1" transform="rotate(90 2 4)" fill="black"/>
<rect x="2" y="11" width="2" height="1" transform="rotate(90 2 11)" fill="black"/>
<rect x="16" y="11" width="2" height="1" transform="rotate(90 16 11)" fill="black"/>
<rect x="16" y="4" width="2" height="1" transform="rotate(90 16 4)" fill="black"/>
<rect x="9" y="1" width="2" height="1" transform="rotate(90 9 1)" fill="black"/>
<rect x="9" y="14" width="2" height="1" transform="rotate(90 9 14)" fill="black"/>
<rect x="3" y="2" width="1" height="1" fill="black"/>
<rect x="14" y="15" width="1" height="1" transform="rotate(-180 14 15)" fill="black"/>
<rect x="13" y="2" width="1" height="1" fill="black"/>
<rect x="4" y="15" width="1" height="1" transform="rotate(-180 4 15)" fill="black"/>
<rect x="2" y="3" width="1" height="1" fill="black"/>
<rect x="15" y="14" width="1" height="1" transform="rotate(-180 15 14)" fill="black"/>
<rect x="14" y="3" width="1" height="1" fill="black"/>
<rect x="3" y="14" width="1" height="1" transform="rotate(-180 3 14)" fill="black"/>
<rect x="11" y="15" width="2" height="1" fill="black"/>
<rect x="14" y="8" width="2" height="1" fill="black"/>
<rect x="1" y="8" width="2" height="1" fill="black"/>
<rect x="11" y="1" width="2" height="1" fill="black"/>
<rect x="12" y="7" width="1" height="3" fill="black"/>
<rect x="4" y="7" width="1" height="3" fill="black"/>
<rect x="5" y="6" width="1" height="1" fill="black"/>
<rect x="6" y="5" width="1" height="1" fill="black"/>
<rect x="10" y="5" width="1" height="1" fill="black"/>
<rect x="11" y="6" width="1" height="1" fill="black"/>
<rect x="11" y="10" width="1" height="1" fill="black"/>
<rect x="10" y="11" width="1" height="1" fill="black"/>
<rect x="6" y="11" width="1" height="1" fill="black"/>
<rect x="5" y="10" width="1" height="1" fill="black"/>
<rect x="8" y="8" width="1" height="1" fill="black"/>
<rect x="7" y="4" width="3" height="1" fill="black"/>
<rect x="7" y="12" width="3" height="1" fill="black"/>
<rect x="7" y="6" width="3" height="1" fill="#BB4343"/>
<rect x="7" y="10" width="3" height="1" fill="#BB4343"/>
<rect x="10" y="7" width="1" height="3" fill="#BB4343"/>
<rect x="6" y="7" width="1" height="3" fill="#C14247"/>
</svg>
