<svg width="17" height="9" viewBox="0 0 17 9" fill="none" xmlns="http://www.w3.org/2000/svg">
  <rect x="1" y="0" width="1" height="1" fill="#1F4923" />
  <rect x="2" y="0" width="1" height="1" fill="#1F4923" />
  <rect x="6" y="0" width="1" height="1" fill="#1F4923" />
  <rect x="7" y="0" width="1" height="1" fill="#376800" />
  <rect x="8" y="0" width="1" height="1" fill="#1F4923" />
  <rect x="10" y="0" width="1" height="1" fill="#1A2F2F" />
  <rect x="11" y="0" width="1" height="1" fill="#1A2F2F" />
  <rect x="12" y="0" width="1" height="1" fill="#1F4923" />
  <rect x="14" y="0" width="1" height="1" fill="#1F4923" />

  <rect x="0" y="1" width="1" height="1" fill="#1F4923" />
  <rect x="1" y="1" width="1" height="1" fill="#83B60B" />
  <rect x="2" y="1" width="1" height="1" fill="#83B60B" />
  <rect x="3" y="1" width="1" height="1" fill="#1A2F2F" />
  <rect x="5" y="1" width="1" height="1" fill="#1A2F2F" />
  <rect x="6" y="1" width="1" height="1" fill="#83B60B" />
  <rect x="7" y="1" width="1" height="1" fill="#598F0A" />
  <rect x="8" y="1" width="1" height="1" fill="#83B60B" />
  <rect x="9" y="1" width="1" height="1" fill="#598F0A" />
  <rect x="10" y="1" width="1" height="1" fill="#598F0A" />
  <rect x="11" y="1" width="1" height="1" fill="#376800" />
  <rect x="12" y="1" width="1" height="1" fill="#376800" />
  <rect x="13" y="1" width="1" height="1" fill="#376800" />
  <rect x="14" y="1" width="1" height="1" fill="#376800" />
  <rect x="15" y="1" width="1" height="1" fill="#1F4923" />

  <rect x="1" y="2" width="1" height="1" fill="#1F4923" />
  <rect x="2" y="2" width="1" height="1" fill="#376800" />
  <rect x="3" y="2" width="1" height="1" fill="#83B60B" />
  <rect x="4" y="2" width="1" height="1" fill="#1F4923" />
  <rect x="5" y="2" width="1" height="1" fill="#1F4923" />
  <rect x="6" y="2" width="1" height="1" fill="#376800" />
  <rect x="7" y="2" width="1" height="1" fill="#376800" />
  <rect x="8" y="2" width="1" height="1" fill="#376800" />
  <rect x="9" y="2" width="1" height="1" fill="#376800" />
  <rect x="10" y="2" width="1" height="1" fill="#376800" />
  <rect x="11" y="2" width="1" height="1" fill="#376800" />
  <rect x="12" y="2" width="1" height="1" fill="#376800" />
  <rect x="13" y="2" width="1" height="1" fill="#000000" />
  <rect x="14" y="2" width="1" height="1" fill="#376800" />
  <rect x="15" y="2" width="1" height="1" fill="#598F0A" />
  <rect x="16" y="2" width="1" height="1" fill="#1F4923" />

  <rect x="2" y="3" width="1" height="1" fill="#1A2F2F" />
  <rect x="3" y="3" width="1" height="1" fill="#598F0A" />
  <rect x="4" y="3" width="1" height="1" fill="#376800" />
  <rect x="5" y="3" width="1" height="1" fill="#598F0A" />
  <rect x="6" y="3" width="1" height="1" fill="#376800" />
  <rect x="7" y="3" width="1" height="1" fill="#598F0A" />
  <rect x="8" y="3" width="1" height="1" fill="#376800" />
  <rect x="9" y="3" width="1" height="1" fill="#598F0A" />
  <rect x="10" y="3" width="1" height="1" fill="#598F0A" />
  <rect x="11" y="3" width="1" height="1" fill="#376800" />
  <rect x="12" y="3" width="1" height="1" fill="#83B60B" />
  <rect x="13" y="3" width="1" height="1" fill="#598F0A" />
  <rect x="14" y="3" width="1" height="1" fill="#598F0A" />
  <rect x="15" y="3" width="1" height="1" fill="#1F4923" />

  <rect x="3" y="4" width="1" height="1" fill="#1A2F2F" />
  <rect x="4" y="4" width="1" height="1" fill="#598F0A" />
  <rect x="5" y="4" width="1" height="1" fill="#376800" />
  <rect x="6" y="4" width="1" height="1" fill="#83B60B" />
  <rect x="7" y="4" width="1" height="1" fill="#598F0A" />
  <rect x="8" y="4" width="1" height="1" fill="#598F0A" />
  <rect x="9" y="4" width="1" height="1" fill="#598F0A" />
  <rect x="10" y="4" width="1" height="1" fill="#9AA875" />
  <rect x="11" y="4" width="1" height="1" fill="#376800" />
  <rect x="12" y="4" width="1" height="1" fill="#376800" />
  <rect x="13" y="4" width="1" height="1" fill="#376800" />
  <rect x="14" y="4" width="1" height="1" fill="#376800" />
  <rect x="15" y="4" width="1" height="1" fill="#83B60B" />
  <rect x="16" y="4" width="1" height="1" fill="#1F4923" />

  <rect x="2" y="5" width="1" height="1" fill="#1A2F2F" />
  <rect x="3" y="5" width="1" height="1" fill="#598F0A" />
  <rect x="4" y="5" width="1" height="1" fill="#376800" />
  <rect x="5" y="5" width="1" height="1" fill="#598F0A" />
  <rect x="6" y="5" width="1" height="1" fill="#376800" />
  <rect x="7" y="5" width="1" height="1" fill="#DBD6A8" />
  <rect x="8" y="5" width="1" height="1" fill="#1F4923" />
  <rect x="9" y="5" width="1" height="1" fill="#9AA875" />
  <rect x="10" y="5" width="1" height="1" fill="#DBD6A8" />
  <rect x="11" y="5" width="1" height="1" fill="#9AA875" />
  <rect x="12" y="5" width="1" height="1" fill="#598F0A" />
  <rect x="13" y="5" width="1" height="1" fill="#598F0A" />
  <rect x="14" y="5" width="1" height="1" fill="#376800" />
  <rect x="15" y="5" width="1" height="1" fill="#376800" />

  <rect x="1" y="6" width="1" height="1" fill="#1F4923" />
  <rect x="2" y="6" width="1" height="1" fill="#376800" />
  <rect x="3" y="6" width="1" height="1" fill="#598F0A" />
  <rect x="4" y="6" width="1" height="1" fill="#1F4923" />
  <rect x="5" y="6" width="1" height="1" fill="#1F4923" />
  <rect x="6" y="6" width="1" height="1" fill="#DBD6A8" />
  <rect x="7" y="6" width="1" height="1" fill="#376800" />
  <rect x="8" y="6" width="1" height="1" fill="#9AA875" />
  <rect x="9" y="6" width="1" height="1" fill="#DBD6A8" />
  <rect x="10" y="6" width="1" height="1" fill="#9AA875" />
  <rect x="11" y="6" width="1" height="1" fill="#DBD6A8" />
  <rect x="12" y="6" width="1" height="1" fill="#376800" />
  <rect x="13" y="6" width="1" height="1" fill="#1F4923" />
  <rect x="14" y="6" width="1" height="1" fill="#1F4923" />

  <rect x="0" y="7" width="1" height="1" fill="#376800" />
  <rect x="1" y="7" width="1" height="1" fill="#83B60B" />
  <rect x="2" y="7" width="1" height="1" fill="#83B60B" />
  <rect x="3" y="7" width="1" height="1" fill="#1A2F2F" />
  <rect x="7" y="7" width="1" height="1" fill="#376800" />
  <rect x="8" y="7" width="1" height="1" fill="#9AA875" />
  <rect x="9" y="7" width="1" height="1" fill="#376800" />
  <rect x="10" y="7" width="1" height="1" fill="#9AA875" />
  <rect x="11" y="7" width="1" height="1" fill="#376800" />
  <rect x="12" y="7" width="1" height="1" fill="#1F4923" />

  <rect x="1" y="8" width="1" height="1" fill="#376800" />
  <rect x="2" y="8" width="1" height="1" fill="#376800" />
  <rect x="8" y="8" width="1" height="1" fill="#376800" />
  <rect x="10" y="8" width="1" height="1" fill="#376800" />
</svg>